{
  "accessors": [
    {
      "bufferView": 2,
      "componentType": 5126,
      "count": 12574,
      "max": [
        6.802353858947754,
        12.108016014099121,
        4.970789909362793
      ],
      "min": [
        -6.790441989898682,
        -12.266908645629883,
        0.04879400134086609
      ],
      "type": "VEC3"
    },
    {
      "bufferView": 2,
      "byteOffset": 150888,
      "componentType": 5126,
      "count": 12574,
      "max": [
        0.9999927878379822,
        0.9999996423721313,
        1.0
      ],
      "min": [
        -0.9999993443489075,
        -0.9999971389770508,
        -0.529382050037384
      ],
      "type": "VEC3"
    },
    {
      "bufferView": 3,
      "componentType": 5126,
      "count": 12574,
      "max": [
        0.855819046497345,
        0.4304226338863373,
        0.9999815225601196,
        1.0
      ],
      "min": [
        -0.8123918771743774,
        -0.9999998807907104,
        -0.9999967217445374,
        1.0
      ],
      "type": "VEC4"
    },
    {
      "bufferView": 1,
      "componentType": 5126,
      "count": 12574,
      "max": [
        0.9980400204658508,
        0.600600004196167
      ],
      "min": [
        0.0019499999471008778,
        0.0019499999471008778
      ],
      "type": "VEC2"
    },
    {
      "bufferView": 0,
      "componentType": 5125,
      "count": 74697,
      "type": "SCALAR"
    }
  ],
  "asset": {
    "extras": {
      "author": "Baso Assets (https://sketchfab.com/basoassets)",
      "license": "CC-BY-4.0 (http://creativecommons.org/licenses/by/4.0/)",
      "source": "https://sketchfab.com/3d-models/free-flour-pile-95e25055b79541f69d14d64fd76fd5bd",
      "title": "[FREE] Flour pile"
    },
    "generator": "Sketchfab-15.53.0",
    "version": "2.0"
  },
  "bufferViews": [
    {
      "buffer": 0,
      "byteLength": 298788,
      "name": "floatBufferViews",
      "target": 34963
    },
    {
      "buffer": 0,
      "byteLength": 100592,
      "byteOffset": 298788,
      "byteStride": 8,
      "name": "floatBufferViews",
      "target": 34962
    },
    {
      "buffer": 0,
      "byteLength": 301776,
      "byteOffset": 399380,
      "byteStride": 12,
      "name": "floatBufferViews",
      "target": 34962
    },
    {
      "buffer": 0,
      "byteLength": 201184,
      "byteOffset": 701156,
      "byteStride": 16,
      "name": "floatBufferViews",
      "target": 34962
    }
  ],
  "buffers": [
    {
      "byteLength": 902340,
      "uri": "scene.bin"
    }
  ],
  "extensionsUsed": [
    "KHR_materials_specular"
  ],
  "images": [
    {
      "uri": "textures/material_0_baseColor.png"
    },
    {
      "uri": "textures/material_0_normal.png"
    }
  ],
  "materials": [
    {
      "doubleSided": true,
      "extensions": {
        "KHR_materials_specular": {
          "specularColorFactor": [
            1.0,
            1.0,
            1.0
          ],
          "specularFactor": 0.0
        }
      },
      "name": "material_0",
      "normalTexture": {
        "index": 1,
        "scale": 0.5
      },
      "pbrMetallicRoughness": {
        "baseColorTexture": {
          "index": 0
        },
        "metallicFactor": 0.0
      }
    }
  ],
  "meshes": [
    {
      "name": "Object_0",
      "primitives": [
        {
          "attributes": {
            "NORMAL": 1,
            "POSITION": 0,
            "TANGENT": 2,
            "TEXCOORD_0": 3
          },
          "indices": 4,
          "material": 0,
          "mode": 4
        }
      ]
    }
  ],
  "nodes": [
    {
      "children": [
        1
      ],
      "matrix": [
        -0.9999874234199524,
        -6.572100430887228e-17,
        0.0050188712775707245,
        0.0,
        0.005018806550651789,
        -0.005079197231680377,
        0.9999744892120361,
        0.0,
        2.5491835913271643e-05,
        0.9999871253967285,
        0.005079133436084016,
        0.0,
        0.0,
        0.0,
        0.0,
        1.0
      ],
      "name": "Sketchfab_model"
    },
    {
      "children": [
        2
      ],
      "name": "FlourPileWithBoard_LOD0.OBJ.cleaner.materialmerger.gles"
    },
    {
      "mesh": 0,
      "name": "Object_2"
    }
  ],
  "samplers": [
    {
      "magFilter": 9729,
      "minFilter": 9987,
      "wrapS": 10497,
      "wrapT": 10497
    }
  ],
  "scene": 0,
  "scenes": [
    {
      "name": "Sketchfab_Scene",
      "nodes": [
        0
      ]
    }
  ],
  "textures": [
    {
      "sampler": 0,
      "source": 0
    },
    {
      "sampler": 0,
      "source": 1
    }
  ]
}
