{
  "accessors": [
    {
      "bufferView": 2,
      "componentType": 5126,
      "count": 324,
      "max": [
        0.21735799312591553,
        0.19508199393749237,
        0.10942699760198593
      ],
      "min": [
        -0.25301098823547363,
        -0.18327200412750244,
        -0.08059299737215042
      ],
      "type": "VEC3"
    },
    {
      "bufferView": 2,
      "byteOffset": 3888,
      "componentType": 5126,
      "count": 324,
      "max": [
        0.9984545111656189,
        0.9987307786941528,
        0.9994733929634094
      ],
      "min": [
        -0.9909960031509399,
        -0.998854398727417,
        -1.0
      ],
      "type": "VEC3"
    },
    {
      "bufferView": 3,
      "componentType": 5126,
      "count": 324,
      "max": [
        0.9411980509757996,
        0.9536646008491516,
        0.9978160262107849,
        1.0
      ],
      "min": [
        -0.840234637260437,
        -0.9779565334320068,
        -0.997556746006012,
        1.0
      ],
      "type": "VEC4"
    },
    {
      "bufferView": 1,
      "componentType": 5126,
      "count": 324,
      "max": [
        0.8417969942092896,
        0.6281740069389343
      ],
      "min": [
        0.004414000082761049,
        0.004882991313934326
      ],
      "type": "VEC2"
    },
    {
      "bufferView": 1,
      "byteOffset": 2592,
      "componentType": 5126,
      "count": 324,
      "max": [
        0.8417969942092896,
        0.6281740069389343
      ],
      "min": [
        0.004414000082761049,
        0.004882991313934326
      ],
      "type": "VEC2"
    },
    {
      "bufferView": 1,
      "byteOffset": 5184,
      "componentType": 5126,
      "count": 324,
      "max": [
        0.8417969942092896,
        0.6281740069389343
      ],
      "min": [
        0.004414000082761049,
        0.004882991313934326
      ],
      "type": "VEC2"
    },
    {
      "bufferView": 1,
      "byteOffset": 7776,
      "componentType": 5126,
      "count": 324,
      "max": [
        0.8417969942092896,
        0.6281740069389343
      ],
      "min": [
        0.004414000082761049,
        0.004882991313934326
      ],
      "type": "VEC2"
    },
    {
      "bufferView": 0,
      "componentType": 5125,
      "count": 1764,
      "type": "SCALAR"
    }
  ],
  "asset": {
    "extras": {
      "author": "teacherap123 (https://sketchfab.com/teacherap123)",
      "license": "CC-BY-4.0 (http://creativecommons.org/licenses/by/4.0/)",
      "source": "https://sketchfab.com/3d-models/dough-9edcfe2bb01842adb152b579b3d06c59",
      "title": "dough"
    },
    "generator": "Sketchfab-16.74.0",
    "version": "2.0"
  },
  "bufferViews": [
    {
      "buffer": 0,
      "byteLength": 7056,
      "name": "floatBufferViews",
      "target": 34963
    },
    {
      "buffer": 0,
      "byteLength": 10368,
      "byteOffset": 7056,
      "byteStride": 8,
      "name": "floatBufferViews",
      "target": 34962
    },
    {
      "buffer": 0,
      "byteLength": 7776,
      "byteOffset": 17424,
      "byteStride": 12,
      "name": "floatBufferViews",
      "target": 34962
    },
    {
      "buffer": 0,
      "byteLength": 5184,
      "byteOffset": 25200,
      "byteStride": 16,
      "name": "floatBufferViews",
      "target": 34962
    }
  ],
  "buffers": [
    {
      "byteLength": 30384,
      "uri": "scene.bin"
    }
  ],
  "images": [
    {
      "uri": "textures/MI_Croissant_Pie_Dough_Croissant_baseColor.png"
    },
    {
      "uri": "textures/MI_Croissant_Pie_Dough_Croissant_metallicRoughness.png"
    },
    {
      "uri": "textures/MI_Croissant_Pie_Dough_Croissant_normal.png"
    }
  ],
  "materials": [
    {
      "doubleSided": true,
      "name": "MI_Croissant_Pie_Dough_Croissant",
      "normalTexture": {
        "index": 2
      },
      "pbrMetallicRoughness": {
        "baseColorTexture": {
          "index": 0
        },
        "metallicRoughnessTexture": {
          "index": 1
        }
      }
    }
  ],
  "meshes": [
    {
      "name": "Object_0",
      "primitives": [
        {
          "attributes": {
            "NORMAL": 1,
            "POSITION": 0,
            "TANGENT": 2,
            "TEXCOORD_0": 3,
            "TEXCOORD_1": 4,
            "TEXCOORD_2": 5,
            "TEXCOORD_3": 6
          },
          "indices": 7,
          "material": 0,
          "mode": 4
        }
      ]
    }
  ],
  "nodes": [
    {
      "children": [
        1
      ],
      "matrix": [
        1.0,
        0.0,
        0.0,
        0.0,
        0.0,
        2.220446049250313e-16,
        -1.0,
        0.0,
        0.0,
        1.0,
        2.220446049250313e-16,
        0.0,
        0.0,
        0.0,
        0.0,
        1.0
      ],
      "name": "Sketchfab_model"
    },
    {
      "children": [
        2
      ],
      "name": "root"
    },
    {
      "children": [
        3
      ],
      "matrix": [
        1.0,
        0.0,
        0.0,
        0.0,
        0.0,
        2.220446049250313e-16,
        1.0,
        0.0,
        0.0,
        -1.0,
        2.220446049250313e-16,
        0.0,
        0.0,
        0.0,
        0.0,
        1.0
      ],
      "name": "GLTF_SceneRootNode"
    },
    {
      "children": [
        4
      ],
      "matrix": [
        1.0,
        0.0,
        -0.0,
        0.0,
        -0.0,
        -3.371747936409264e-07,
        -0.999999999999943,
        0.0,
        0.0,
        0.999999999999943,
        -3.371747936409264e-07,
        0.0,
        0.0,
        0.0,
        0.0,
        1.0
      ],
      "name": "Sketchfab_model_2"
    },
    {
      "children": [
        5
      ],
      "name": "b367cd06ca6c48948bfa3ba0a0c2f4e5.obj.cleaner.materialmerger.gle_1"
    },
    {
      "children": [
        6
      ],
      "name": "Object_2_0"
    },
    {
      "mesh": 0,
      "name": "Object_6"
    }
  ],
  "samplers": [
    {
      "magFilter": 9729,
      "minFilter": 9987,
      "wrapS": 10497,
      "wrapT": 10497
    }
  ],
  "scene": 0,
  "scenes": [
    {
      "name": "Sketchfab_Scene",
      "nodes": [
        0
      ]
    }
  ],
  "textures": [
    {
      "sampler": 0,
      "source": 0
    },
    {
      "sampler": 0,
      "source": 1
    },
    {
      "sampler": 0,
      "source": 2
    }
  ]
}
